<?xml version="1.0" encoding="UTF-8" standalone="no"?>
<svg
   xmlns:dc="http://purl.org/dc/elements/1.1/"
   xmlns:cc="http://creativecommons.org/ns#"
   xmlns:rdf="http://www.w3.org/1999/02/22-rdf-syntax-ns#"
   xmlns:svg="http://www.w3.org/2000/svg"
   xmlns="http://www.w3.org/2000/svg"
   viewBox="0 0 548.64004 143.59332"
   height="143.59332"
   width="548.64001"
   xml:space="preserve"
   id="svg851"
   version="1.1"><metadata
     id="metadata857"><rdf:RDF><cc:Work
         rdf:about=""><dc:format>image/svg+xml</dc:format><dc:type
           rdf:resource="http://purl.org/dc/dcmitype/StillImage" /><dc:title></dc:title></cc:Work></rdf:RDF></metadata><defs
     id="defs855" /><g
     transform="matrix(1.3333333,0,0,-1.3333333,-257.51599,335.22132)"
     id="g859"><path
       d="m 206.055,243.947 h -12.918 v 6.645 h 34.57 v -6.645 h -12.918 v -44.871 h -8.734 z"
       style="fill:#656263;fill-opacity:1;fill-rule:nonzero;stroke:none"
       id="path863" /><path
       d="m 250.492,204.451 c 8.813,0 11.199,9.407 11.199,20.383 0,10.977 -2.386,20.383 -11.199,20.383 -8.883,0 -11.195,-9.406 -11.195,-20.383 0,-10.976 2.312,-20.383 11.195,-20.383 m -20.828,20.383 c 0,15.008 4.703,26.578 20.828,26.578 16.055,0 20.832,-11.57 20.832,-26.578 0,-15.008 -4.777,-26.578 -20.832,-26.578 -16.125,0 -20.828,11.57 -20.828,26.578"
       style="fill:#656263;fill-opacity:1;fill-rule:nonzero;stroke:none"
       id="path865" /><path
       d="m 288.871,227.225 h 4.555 c 5.226,0 9.183,2.613 9.183,8.512 0,6.644 -3.437,8.66 -9.183,8.66 h -4.555 z m -8.734,23.367 h 13.289 c 7.988,0 18.066,-1.195 18.066,-14.855 0,-12.321 -10.898,-14.711 -18.066,-14.711 h -4.555 v -21.95 h -8.734 z"
       style="fill:#656263;fill-opacity:1;fill-rule:nonzero;stroke:none"
       id="path867" /><path
       d="m 336.207,204.451 c 8.809,0 11.199,9.407 11.199,20.383 0,10.977 -2.39,20.383 -11.199,20.383 -8.887,0 -11.199,-9.406 -11.199,-20.383 0,-10.976 2.312,-20.383 11.199,-20.383 m -20.832,20.383 c 0,15.008 4.707,26.578 20.832,26.578 16.051,0 20.828,-11.57 20.828,-26.578 0,-15.008 -4.777,-26.578 -20.828,-26.578 -16.125,0 -20.832,11.57 -20.832,26.578"
       style="fill:#656263;fill-opacity:1;fill-rule:nonzero;stroke:none"
       id="path869" /><path
       d="m 365.848,250.592 h 11.945 l 14.336,-41.137 h 0.148 l 14.411,41.137 h 11.871 v -51.516 h -7.989 v 40.618 h -0.148 l -14.188,-40.618 h -8.062 l -14.184,40.618 h -0.152 v -40.618 h -7.988 z"
       style="fill:#656263;fill-opacity:1;fill-rule:nonzero;stroke:none"
       id="path871" /><path
       d="m 429.535,250.592 h 30.09 v -6.645 H 438.27 v -14.859 h 20.234 v -6.641 H 438.27 v -16.726 h 21.953 v -6.645 h -30.688 z"
       style="fill:#656263;fill-opacity:1;fill-rule:nonzero;stroke:none"
       id="path873" /><path
       d="m 477.094,205.276 h 4.031 c 8.813,0 12.992,3.878 12.992,19.707 0,12.543 -2.164,19.414 -12.992,19.414 h -4.031 z m -8.735,45.316 h 12.766 c 16.504,0 22.625,-7.168 22.625,-25.609 0,-23.817 -11.945,-25.907 -22.625,-25.907 h -12.766 z"
       style="fill:#656263;fill-opacity:1;fill-rule:nonzero;stroke:none"
       id="path875" /><path
       d="m 512.336,250.592 h 8.734 v -51.516 h -8.734 z"
       style="fill:#656263;fill-opacity:1;fill-rule:nonzero;stroke:none"
       id="path877" /><path
       d="m 565.418,201.24 c -2.465,-1.043 -7.84,-2.984 -14.035,-2.984 -15.008,0 -21.653,10.75 -21.653,26.801 0,15.16 5.598,26.359 20.309,26.359 11.945,0 17.32,-6.945 17.32,-14.933 h -9.707 c 0,4.031 -0.894,8.734 -7.613,8.734 -9.035,0 -10.676,-10.75 -10.676,-18.816 0,-12.317 3.508,-21.278 14.035,-21.278 5.75,0 10.602,2.989 12.02,3.809 z"
       style="fill:#656263;fill-opacity:1;fill-rule:nonzero;stroke:none"
       id="path879" /><path
       d="m 600.734,241.932 c -3.433,1.344 -7.687,3.285 -12.918,3.285 -4.328,0 -7.761,-1.941 -7.761,-6.348 0,-9.109 24.562,-10.453 24.562,-25.98 0,-9.633 -7.765,-14.633 -18.965,-14.633 -6.644,0 -12.691,1.793 -14.261,2.164 v 9.035 c 3.062,-1.867 8.066,-5.004 14.562,-5.004 6.867,0 9.031,3.809 9.031,7.168 0,11.2 -24.562,11.871 -24.562,26.504 0,9.184 7.988,13.289 17.695,13.289 5.75,0 10.75,-1.043 12.617,-1.418 z"
       style="fill:#656263;fill-opacity:1;fill-rule:nonzero;stroke:none"
       id="path881" /><path
       d="m 278.984,161.162 c 0.59,-0.156 1.336,-0.215 2.235,-0.215 3.258,0 5.246,1.582 5.246,4.438 0,2.762 -1.957,4.098 -4.934,4.098 -1.179,0 -2.082,-0.094 -2.547,-0.219 z m -2.699,10.028 c 1.305,0.246 3.012,0.433 5.184,0.433 2.668,0 4.625,-0.621 5.867,-1.738 1.144,-0.992 1.859,-2.516 1.859,-4.348 0,-1.89 -0.558,-3.383 -1.644,-4.468 -1.426,-1.52 -3.754,-2.297 -6.395,-2.297 -0.804,0 -1.551,0.035 -2.172,0.187 v -8.41 h -2.699 z"
       style="fill:#656263;fill-opacity:1;fill-rule:nonzero;stroke:none"
       id="path951" /><path
       d="m 292.207,160.885 c 0,1.769 -0.031,3.289 -0.121,4.687 h 2.387 l 0.125,-2.949 h 0.093 c 0.684,2.016 2.36,3.289 4.192,3.289 0.277,0 0.496,-0.031 0.742,-0.062 v -2.578 c -0.277,0.031 -0.559,0.062 -0.93,0.062 -1.925,0 -3.289,-1.457 -3.664,-3.472 -0.062,-0.407 -0.093,-0.84 -0.093,-1.274 v -8.039 h -2.731 z"
       style="fill:#656263;fill-opacity:1;fill-rule:nonzero;stroke:none"
       id="path953" /><path
       d="m 311.578,159.518 c 0.027,1.738 -0.715,4.437 -3.758,4.437 -2.793,0 -3.972,-2.543 -4.187,-4.437 z m -7.98,-1.953 c 0.062,-3.664 2.394,-5.184 5.125,-5.184 1.953,0 3.164,0.34 4.156,0.773 l 0.496,-1.953 c -0.961,-0.437 -2.637,-0.964 -5.027,-0.964 -4.594,0 -7.387,3.074 -7.387,7.574 0,4.531 2.699,8.101 7.078,8.101 4.902,0 6.176,-4.316 6.176,-7.078 0,-0.558 -0.031,-0.961 -0.094,-1.269 z"
       style="fill:#656263;fill-opacity:1;fill-rule:nonzero;stroke:none"
       id="path955" /><path
       d="m 328.305,151.108 c -0.711,-0.344 -2.297,-0.871 -4.313,-0.871 -4.531,0 -7.48,3.074 -7.48,7.667 0,4.625 3.168,8.008 8.07,8.008 1.613,0 3.043,-0.402 3.785,-0.808 l -0.621,-2.078 c -0.648,0.339 -1.672,0.714 -3.164,0.714 -3.445,0 -5.309,-2.578 -5.309,-5.679 0,-3.477 2.235,-5.617 5.215,-5.617 1.551,0 2.578,0.371 3.352,0.71 z"
       style="fill:#656263;fill-opacity:1;fill-rule:nonzero;stroke:none"
       id="path957" /><path
       d="m 331.504,165.569 h 2.73 v -15.02 h -2.73 z m 1.305,2.546 c -0.993,0 -1.645,0.778 -1.645,1.676 0,0.961 0.68,1.707 1.707,1.707 0.992,0 1.676,-0.746 1.676,-1.707 0,-0.898 -0.652,-1.676 -1.707,-1.676 z"
       style="fill:#656263;fill-opacity:1;fill-rule:nonzero;stroke:none"
       id="path959" /><path
       d="m 338.395,153.342 c 0.839,-0.496 2.265,-1.055 3.632,-1.055 1.953,0 2.887,0.961 2.887,2.235 0,1.304 -0.777,1.984 -2.766,2.73 -2.73,0.992 -4,2.485 -4,4.254 0,2.418 1.985,4.406 5.18,4.406 1.524,0 2.856,-0.402 3.664,-0.933 l -0.652,-1.953 c -0.59,0.339 -1.676,0.867 -3.07,0.867 -1.618,0 -2.485,-0.93 -2.485,-2.047 0,-1.242 0.867,-1.801 2.824,-2.574 2.575,-0.965 3.942,-2.27 3.942,-4.504 0,-2.668 -2.078,-4.531 -5.586,-4.531 -1.645,0 -3.164,0.437 -4.223,1.058 z"
       style="fill:#656263;fill-opacity:1;fill-rule:nonzero;stroke:none"
       id="path961" /><path
       d="m 351.059,165.569 h 2.73 v -15.02 h -2.73 z m 1.304,2.546 c -0.992,0 -1.644,0.778 -1.644,1.676 0,0.961 0.683,1.707 1.707,1.707 0.992,0 1.676,-0.746 1.676,-1.707 0,-0.898 -0.653,-1.676 -1.707,-1.676 z"
       style="fill:#656263;fill-opacity:1;fill-rule:nonzero;stroke:none"
       id="path963" /><path
       d="m 364.559,152.256 c 2.609,0 4.566,2.453 4.566,5.867 0,2.543 -1.273,5.739 -4.504,5.739 -3.195,0 -4.59,-2.977 -4.59,-5.833 0,-3.292 1.86,-5.773 4.5,-5.773 z m -0.121,-2.051 c -4.036,0 -7.204,2.981 -7.204,7.731 0,5.027 3.325,7.976 7.45,7.976 4.316,0 7.23,-3.136 7.23,-7.699 0,-5.586 -3.879,-8.008 -7.445,-8.008 z"
       style="fill:#656263;fill-opacity:1;fill-rule:nonzero;stroke:none"
       id="path965" /><path
       d="m 375.363,161.506 c 0,1.582 -0.031,2.824 -0.125,4.063 h 2.422 l 0.156,-2.45 h 0.063 c 0.742,1.395 2.48,2.793 4.965,2.793 2.078,0 5.304,-1.242 5.304,-6.394 v -8.969 h -2.73 v 8.66 c 0,2.418 -0.898,4.469 -3.477,4.469 -1.765,0 -3.164,-1.274 -3.66,-2.793 -0.125,-0.344 -0.187,-0.84 -0.187,-1.273 v -9.063 h -2.731 z"
       style="fill:#656263;fill-opacity:1;fill-rule:nonzero;stroke:none"
       id="path967" /><path
       d="m 401.902,156.569 c 0,-0.34 0.032,-0.684 0.094,-0.993 0.527,-1.894 2.141,-3.195 4.094,-3.195 2.887,0 4.562,2.328 4.562,5.77 0,3.043 -1.55,5.621 -4.468,5.621 -1.864,0 -3.598,-1.305 -4.129,-3.356 -0.09,-0.34 -0.153,-0.711 -0.153,-1.144 z m -2.73,16.015 h 2.73 v -9.402 h 0.063 c 0.961,1.676 2.699,2.73 5.121,2.73 3.723,0 6.328,-3.105 6.328,-7.636 0,-5.399 -3.414,-8.071 -6.766,-8.071 -2.171,0 -3.878,0.84 -5.027,2.824 h -0.062 l -0.153,-2.48 h -2.359 c 0.09,1.023 0.125,2.543 0.125,3.879 z"
       style="fill:#656263;fill-opacity:1;fill-rule:nonzero;stroke:none"
       id="path969" /><path
       d="m 417.605,165.569 3.262,-8.875 c 0.371,-0.993 0.742,-2.172 0.992,-3.075 h 0.063 c 0.281,0.903 0.59,2.051 0.961,3.137 l 2.98,8.813 h 2.887 l -4.098,-10.707 c -1.953,-5.149 -3.289,-7.758 -5.152,-9.403 -1.367,-1.148 -2.668,-1.613 -3.352,-1.738 l -0.683,2.266 c 0.683,0.218 1.582,0.652 2.39,1.335 0.747,0.59 1.645,1.645 2.297,3.04 0.125,0.281 0.219,0.496 0.219,0.652 0,0.156 -0.062,0.371 -0.219,0.715 l -5.523,13.84 z"
       style="fill:#656263;fill-opacity:1;fill-rule:nonzero;stroke:none"
       id="path971" /><path
       d="m 440.605,152.658 c 0.688,-0.125 1.68,-0.125 2.735,-0.125 5.769,-0.031 8.906,3.231 8.906,8.879 0.031,4.934 -2.762,8.071 -8.473,8.071 -1.394,0 -2.453,-0.125 -3.168,-0.282 z m -2.726,18.532 c 1.672,0.246 3.629,0.433 5.769,0.433 3.879,0 6.645,-0.902 8.473,-2.609 1.895,-1.707 2.981,-4.125 2.981,-7.508 0,-3.414 -1.086,-6.207 -3.012,-8.133 -1.985,-1.957 -5.211,-3.011 -9.278,-3.011 -1.957,0 -3.539,0.062 -4.933,0.25 z"
       style="fill:#656263;fill-opacity:1;fill-rule:nonzero;stroke:none"
       id="path973" /><path
       d="m 468.137,159.518 c 0.031,1.738 -0.711,4.437 -3.754,4.437 -2.793,0 -3.973,-2.543 -4.192,-4.437 z m -7.977,-1.953 c 0.063,-3.664 2.391,-5.184 5.125,-5.184 1.953,0 3.164,0.34 4.156,0.773 l 0.497,-1.953 c -0.961,-0.437 -2.637,-0.964 -5.028,-0.964 -4.594,0 -7.387,3.074 -7.387,7.574 0,4.531 2.7,8.101 7.079,8.101 4.902,0 6.175,-4.316 6.175,-7.078 0,-0.558 -0.031,-0.961 -0.093,-1.269 z"
       style="fill:#656263;fill-opacity:1;fill-rule:nonzero;stroke:none"
       id="path975" /><path
       d="m 473.789,153.342 c 0.836,-0.496 2.266,-1.055 3.629,-1.055 1.957,0 2.887,0.961 2.887,2.235 0,1.304 -0.774,1.984 -2.762,2.73 -2.731,0.992 -4.004,2.485 -4.004,4.254 0,2.418 1.988,4.406 5.184,4.406 1.519,0 2.855,-0.402 3.664,-0.933 l -0.653,-1.953 c -0.589,0.339 -1.675,0.867 -3.074,0.867 -1.613,0 -2.48,-0.93 -2.48,-2.047 0,-1.242 0.867,-1.801 2.824,-2.574 2.574,-0.965 3.941,-2.27 3.941,-4.504 0,-2.668 -2.082,-4.531 -5.59,-4.531 -1.644,0 -3.164,0.437 -4.218,1.058 z"
       style="fill:#656263;fill-opacity:1;fill-rule:nonzero;stroke:none"
       id="path977" /><path
       d="m 486.453,165.569 h 2.731 v -15.02 h -2.731 z m 1.305,2.546 c -0.996,0 -1.649,0.778 -1.649,1.676 0,0.961 0.684,1.707 1.707,1.707 0.996,0 1.68,-0.746 1.68,-1.707 0,-0.898 -0.652,-1.676 -1.707,-1.676 z"
       style="fill:#656263;fill-opacity:1;fill-rule:nonzero;stroke:none"
       id="path979" /><path
       d="m 503.832,159.674 c 0,0.434 -0.031,0.836 -0.152,1.211 -0.5,1.613 -1.801,2.918 -3.821,2.918 -2.605,0 -4.468,-2.207 -4.468,-5.711 0,-2.918 1.519,-5.402 4.437,-5.402 1.707,0 3.231,1.054 3.789,2.824 0.153,0.433 0.215,0.961 0.215,1.461 z m 2.73,-6.922 c 0,-3.476 -0.71,-5.555 -2.14,-6.89 -1.488,-1.333 -3.598,-1.797 -5.492,-1.797 -1.801,0 -3.785,0.433 -4.996,1.238 l 0.683,2.109 c 0.992,-0.648 2.543,-1.207 4.406,-1.207 2.793,0 4.84,1.457 4.84,5.274 v 1.644 h -0.062 c -0.805,-1.394 -2.449,-2.511 -4.778,-2.511 -3.726,0 -6.394,3.164 -6.394,7.355 0,5.09 3.32,7.945 6.797,7.945 2.605,0 4.004,-1.336 4.687,-2.609 h 0.063 l 0.094,2.266 h 2.418 c -0.094,-1.055 -0.126,-2.297 -0.126,-4.094 z"
       style="fill:#656263;fill-opacity:1;fill-rule:nonzero;stroke:none"
       id="path981" /><path
       d="m 510.879,161.506 c 0,1.582 -0.031,2.824 -0.121,4.063 h 2.418 l 0.156,-2.45 h 0.063 c 0.746,1.395 2.484,2.793 4.964,2.793 2.082,0 5.309,-1.242 5.309,-6.394 v -8.969 h -2.73 v 8.66 c 0,2.418 -0.903,4.469 -3.477,4.469 -1.77,0 -3.168,-1.274 -3.664,-2.793 -0.125,-0.344 -0.188,-0.84 -0.188,-1.273 v -9.063 h -2.73 z"
       style="fill:#656263;fill-opacity:1;fill-rule:nonzero;stroke:none"
       id="path983" /></g></svg>
